/* XPM */
static char * fox_sleep_4_xpm[] = {
"48 48 7 1",
" 	c #6BB250",
".	c #2F2F2E",
"+	c #9D5021",
"@	c #D67941",
"#	c #FFFFFF",
"$	c #B8B8B8",
"%	c #4F4F4E",
"                                                ",
"                                                ",
"                                                ",
"                                                ",
"                                                ",
"                                                ",
"                                                ",
"                                                ",
"                                                ",
"                                                ",
"                                                ",
"                                                ",
"                                                ",
"                                                ",
"                                                ",
"                                                ",
"                               ...              ",
"                               ...              ",
"                        ....  .++@..            ",
"                        .++@.. ..#@@.           ",
"                        .++@.. ..#@@.           ",
"                  ...............#@@.           ",
"                ..+@@@@@@..++++++@@@.           ",
"                ..+@@@@@@..++++++@@@.           ",
"               .+++++@@@.+++++...@@@.           ",
"             .....++++.....+++@@@@@@@..         ",
"             .....++++.....+++@@@@@@@..         ",
"            .++@@@......$$$$#########..         ",
"            .++@@@####............##.           ",
"            .++@@@####............##.           ",
"            .++@@@$#####.@@%..%@@@..            ",
"             .......................            ",
"             .......................            ",
"                                                ",
"                                                ",
"                                                ",
"                                                ",
"                                                ",
"                                                ",
"                                                ",
"                                                ",
"                                                ",
"                                                ",
"                                                ",
"                                                ",
"                                                ",
"                                                ",
"                                                "};
