/* XPM */
static char * fox_idle_l_1_xpm[] = {
"48 48 8 1",
" 	c #6BB250",
".	c #2F2F2E",
"+	c #9D5021",
"@	c #D67941",
"#	c #FFFFFF",
"$	c #B8B8B8",
"%	c #4F4F4E",
"&	c #3B3B39",
"                                                ",
"                                                ",
"                                                ",
"                                                ",
"                                                ",
"                                                ",
"                                                ",
"                                                ",
"                                                ",
"                                                ",
"                  ...                           ",
"                  ...                           ",
"           ....   ..+..                         ",
"           .@@+.. ..#++.                        ",
"           .@@+.. ..#++.                        ",
"            ........#++.            ...         ",
"            ..@@@@@@+++.        ....$$.         ",
"            ..@@@@@@+++.        ....$$.         ",
"           .+++++.@@+++.      ..@###$$.         ",
"         .....@@@@@@++++..   .@@@++$..          ",
"         .....@@@@@@++++..   .@@@++$..          ",
"         ..##########$$$.. ..@@@@++.            ",
"           ...####$$$........@@@+++.            ",
"           ...####$$$........@@@+++.            ",
"              .......++++++++.+++..             ",
"              .###@@@@@@++++++...               ",
"              .###@@@@@@++++++...               ",
"              ...$$$+@@@@@++++..                ",
"              .++....@@......+..                ",
"              .++....@@......+..                ",
"              .%%.  .%%...&..&..                ",
"              ...   ...   .  ...                ",
"              ...   ...   .  ...                ",
"                                                ",
"                                                ",
"                                                ",
"                                                ",
"                                                ",
"                                                ",
"                                                ",
"                                                ",
"                                                ",
"                                                ",
"                                                ",
"                                                ",
"                                                ",
"                                                ",
"                                                "};
