/* XPM */
static char * blob_anim3b_xpm[] = {
"48 48 7 1",
" 	c #6E924D",
".	c #4D733E",
"+	c #87B055",
"@	c #E8B8F0",
"#	c #45283C",
"$	c #D9578A",
"%	c #A43434",
"                                                ",
"                                                ",
"                                 .              ",
"                                .  .            ",
"                                                ",
"                                 .              ",
"                                                ",
"                                                ",
"                                                ",
"                          +                     ",
"                         +++                    ",
"                         ++++                   ",
"         +        @@@@@@@@@@+   +               ",
"         ++       @@@@@@@@@@   ++               ",
"         ++    @@@##########@@@++               ",
"         ++ +@@###$$$$$$$$$$###@@               ",
"         ++ +@@###$$$$$$$$$$###@@               ",
"         +  @##$$$$$$$$$$$$$$$$##@              ",
"          @@#$$$$$$$$$$$$$$$$$$$$#@@            ",
"          @@#$$$$$$$$$$$$$$$$$$$$#@@            ",
"         @##$$$$$$$$$$$$$$$$$$$$$$##@           ",
"       @@#$$$$$$$$$$$$$$$$$$$$$$$$$$#@@         ",
"+      @@#$$$$$$$$$$$$$$$$$$$$$$$$$$#@@         ",
"++     @@#$$$$$$$$$$$$$$$$$$$$$$$$$$$##@        ",
" ++   @##%$$$$$$$$$$$$$$$$$$$$$$$$$$$##@       +",
"++    @##%$$$$$$$$$$$$$$$$$$$$$$$$$$$##@       +",
"+     @##%$$$$$$$$$$$$$$$$$$$$$$$$$$$%%#@@      ",
"      @##%$$$$$$$$$$$$$$$$$$$$$$$$$$$%%#@@      ",
"      @##%$$$$$$$$$$$$$$$$$$$$$$$$$$$%%#@@      ",
"      @##%$$$$$$$$$$$$$$$$$$$$$$$$$$$%%#@@      ",
"      @##%$$$$$$$$$$$$$$$$$$$$$$$$$$$%%#@@      ",
"      @##%$$$$$$$$$$$$$$$$$$$$$$$$$$$%%#@@      ",
"      @##%%%$$$$$$$$$$$$$$$$$$$$$$%%%##@        ",
"       @@#%%%%%$$$$$$$$$$$$$$$$$$%%%%##@        ",
"       @@#%%%%%$$$$$$$$$$$$$$$$$$%%%%##@        ",
"         @##%%%%%%%%%%%%%%%%%%%%%%%%#@@         ",
"          @@#%%%%%%%%%%%%%%%%%%%%%##@ +         ",
"          @@#%%%%%%%%%%%%%%%%%%%%%##@++         ",
"            @###%%%%%%%%%%%%%%%###@@ ++         ",
"             @@@###############@@@++ ++         ",
"             @@@###############@@@++            ",
"                @@@@@@@@@@@@@@@    +            ",
"                                                ",
"                                                ",
"                   ++                           ",
"                  ++ +                          ",
"                   +++                          ",
"                   ++                           "};
