/* XPM */
static char * blob_anim2b_xpm[] = {
"48 48 7 1",
" 	c #6E924D",
".	c #4D733E",
"+	c #E8B8F0",
"@	c #45283C",
"#	c #87B055",
"$	c #D9578A",
"%	c #A43434",
"                                                ",
"                                                ",
"                                 .              ",
"                                .  .            ",
"                                                ",
"                                 .              ",
"                                                ",
"                                                ",
"                                                ",
"                    +++++++++                   ",
"                    +++++++++                   ",
"                 +++@@@@@@@@@+++                ",
"         #     ++@@@$$$$$$$$$@@@+               ",
"         ##    ++@@@$$$$$$$$$@@@+               ",
"         ##   +@@$$$$$$$$$$$$$$$@++             ",
"         ## ++@$$$$$$$$$$$$$$$$$$@@+            ",
"         ## ++@$$$$$$$$$$$$$$$$$$@@+            ",
"         # +@@$$$$$$$$$$$$$$$$$$$$$@++          ",
"         ++@$$$$$$$$$$$$$$$$$$$$$$$@++          ",
"         ++@$$$$$$$$$$$$$$$$$$$$$$$@++          ",
"         ++@$$$$$$$$$$$$$$$$$$$$$$$$@@+         ",
"        +@@%$$$$$$$$$$$$$$$$$$$$$$$$@@+         ",
"#       +@@%$$$$$$$$$$$$$$$$$$$$$$$$@@+         ",
"##      +@@%$$$$$$$$$$$$$$$$$$$$$$$$%%@++       ",
" ##     +@@%$$$$$$$$$$$$$$$$$$$$$$$$%%@++      #",
"##      +@@%$$$$$$$$$$$$$$$$$$$$$$$$%%@++      #",
"#       +@@%$$$$$$$$$$$$$$$$$$$$$$$$%%@++       ",
"        +@@%$$$$$$$$$$$$$$$$$$$$$$$$%%@++       ",
"        +@@%$$$$$$$$$$$$$$$$$$$$$$$$%%@++       ",
"        +@@%$$$$$$$$$$$$$$$$$$$$$$$$%%@++       ",
"        +@@%$$$$$$$$$$$$$$$$$$$$$$$$%%@++       ",
"        +@@%$$$$$$$$$$$$$$$$$$$$$$$$%%@++       ",
"        +@@%%%$$$$$$$$$$$$$$$$$$$$$%@@+         ",
"         ++@%%%%%$$$$$$$$$$$$$$$%%%%@@+         ",
"         ++@%%%%%$$$$$$$$$$$$$$$%%%%@@+         ",
"           +@@%%%%%%%%%%%%%%%%%%%%%@++          ",
"            ++@%%%%%%%%%%%%%%%%%%@@+  #         ",
"            ++@%%%%%%%%%%%%%%%%%%@@+ ##         ",
"              +@@@%%%%%%%%%%%%@@@++# ##         ",
"               +++@@@@@@@@@@@@+++ ## ##         ",
"               +++@@@@@@@@@@@@+++ ##            ",
"                  ++++++++++++     #            ",
"                                                ",
"                                                ",
"                   ##                           ",
"                  ## #                          ",
"                   ###                          ",
"                   ##                           "};
