/* XPM */
static char * blob_anim4_xpm[] = {
"48 48 8 1",
" 	c #2DA206",
".	c #88CC00",
"+	c #0E8F57",
"@	c #69BA00",
"#	c #E8B8F0",
"$	c #45283C",
"%	c #D9578A",
"&	c #A43434",
" ..+           @++    @@@  +..+++ ..@  .      ..",
" @@@         @@                   @@   +        ",
" @@@         @@                   @@   +        ",
"      .  .                           ++   @++   ",
".  +++             ..                     +     ",
".  +++             ..                     +     ",
"+                     @@+           @++         ",
" @@   .     .++      @++      .   @@+        @  ",
" @@   .     .++      @++      .   @@+        @  ",
"      ...   @++   .  +        @   ++         +@@",
"          @@+            ..   @               @@",
"          @@+            ..   @               @@",
"          @@+        @        +      @@@        ",
" @@@  @        .   @@+                 @        ",
" @@@  @        .   @@+                 @        ",
" @@              ############.            .     ",
"             @@  ############     ..          ..",
"             @###$$$$$$$$$$$$###  ..          ..",
"             #$$$%%%%%%%%%%%%$$$##..            ",
" ++    ++ .. #$$$%%%%%%%%%%%%$$$##              ",
" ++    ++ .##$%%%%%%%%%%%%%%%%%%$$#             ",
"      +@@ #$$%%%%%%%%%%%%%%%%%%%%%$##  .     @  ",
"      @   #$$%%%%%%%%%%%%%%%%%%%%%$##  @     +@@",
"      @ ##$%%%%%%%%%%%%%%%%%%%%%%%%$$# @     +@@",
"       #$$%%%%%%%%%%%%%%%%%%%%%%%%%%%$##      ++",
".@@    #$$%%%%%%%%%%%%%%%%%%%%%%%%%%%$##        ",
".@@    #$$%%%%%%%%%%%%%%%%%%%%%%%%%%%%$$#       ",
"+@@  ##$&&%%%%%%%%%%%%%%%%%%%%%%%%%%%%$$#       ",
"     ##$&&%%%%%%%%%%%%%%%%%%%%%%%%%%%%$$#    @  ",
"     ##$&&%%%%%%%%%%%%%%%%%%%%%%%%%%%%&&$##  @  ",
"     ##$&&%%%%%%%%%%%%%%%%%%%%%%%%%%%%&&$##  @@@",
"     ##$&&%%%%%%%%%%%%%%%%%%%%%%%%%%%%&&$##+++@@",
"     ##$&&%%%%%%%%%%%%%%%%%%%%%%%%%&&&$$#  +++@@",
"   @   #$$&&&%%%%%%%%%%%%%%%%%%%%%&&&&$$#       ",
"+  @   #$$&&&%%%%%%%%%%%%%%%%%%%%%&&&&$$#       ",
"+  @   #$$&&&&&&&&&&&&&&&&&&&&&&&&&&&$##        ",
".       ##$&&&&&&&&&&&&&&&&&&&&&&&&$$#     @@@  ",
"        ##$&&&&&&&&&&&&&&&&&&&&&&&&$$#        ++",
"          #$$$&&&&&&&&&&&&&&&&&&$$$##         ++",
" @@@     . ###$$$$$$$$$$$$$$$$$$###+ @@.   ++ ..",
" ..+       ###$$$$$$$$$$$$$$$$$$###    @        ",
" ..+          ##################       @        ",
"       ++@     @++    ..                   @@@  ",
"         +@@             ..             ++ ++.  ",
"         +@@             ..             ++ ++.  ",
"      .              +  .@@                     ",
".      +++         @@   @   @@+   ++@..         ",
".      +++         @@   @   @@+   ++@..         "};
