/* XPM */
static char * evil_chicken_xpm[] = {
"48 48 8 1",
" 	c #6BB250",
".	c #280B26",
"+	c #B42313",
"@	c #361027",
"#	c #681824",
"$	c #FFFDF0",
"%	c #F4680B",
"&	c #609264",
"                                                ",
"                                                ",
"                                                ",
"                                                ",
"                                                ",
"                                                ",
"                                                ",
"                                                ",
"                                                ",
"                                                ",
"                                                ",
"                                                ",
"                                                ",
"                                                ",
"                                                ",
"                                                ",
"                  .   .                         ",
"                 .+. .+.                        ",
"                 .++.++.                        ",
"                 .+@@@+.                        ",
"                  @###@       @                 ",
"                 @#$%##@     @.                 ",
"                @+#%%##@    @#.                 ",
"                 @######@@@@##.                 ",
"                 @##########.#.                 ",
"                 @########@.#.                  ",
"                  @###.##@.##.                  ",
"                  .####...##.                   ",
"                   .#######.                    ",
"                    .......                     ",
"                    &+&&&&&                     ",
"                   &+++&&&&&                    ",
"                    &&&&&&&                     ",
"                                                ",
"                                                ",
"                                                ",
"                                                ",
"                                                ",
"                                                ",
"                                                ",
"                                                ",
"                                                ",
"                                                ",
"                                                ",
"                                                ",
"                                                ",
"                                                ",
"                                                "};
