/* XPM */
static char * fox_s1_xpm[] = {
"48 48 9 1",
" 	c #6E924D",
".	c #4D733E",
"+	c #87B055",
"@	c #2F2F2E",
"#	c #9D5021",
"$	c #D67941",
"%	c #FFFFFF",
"&	c #B8B8B8",
"*	c #4F4F4E",
"                                                ",
"                                                ",
"                                 .              ",
"                                .  .            ",
"                                                ",
"                                 .              ",
"                                                ",
"                                                ",
"                                                ",
"                          +                     ",
"                         +++                    ",
"                         ++++                   ",
"         +               ++++   +               ",
"         ++               ++   ++               ",
"         ++                +  ++@@@@            ",
"         ++ +                ++ @@@@            ",
"         ++ ++        @@@@@@  @@##$$@@          ",
"         +  ++        @@@@@@ .@@##$$@@          ",
"            ++        @@##$$@@  @@%%$$@@        ",
"                      @@##$$@@  @@%%$$@@        ",
"                  @@@@@@@@@@@@@@@@%%$$@@        ",
"                  @@@@@@@@@@@@@@@@%%$$@@        ",
"+           @@@@@@$$$$$$@@########$$$$@@        ",
"++          @@@@@@$$$$$$@@########$$$$@@        ",
" ++       @@######$$$$@@######@@@@$$$$@@       +",
"++        @@######$$$$@@######@@@@$$$$@@       +",
"+       @@@@@@######@@@@@@####$$$$$$$$$$@@      ",
"        @@@@@@######@@@@@@####$$$$$$$$$$@@      ",
"      @@##$$$$@@@@@@@@&&&&&&%%%%%%%%%%%%@@      ",
"      @@##$$$$@@@@@@@@&&&&&&%%%%%%%%%%%%@@      ",
"      @@##$$$$%%%%%%@@@@@@@@@@@@@@@@%%@@        ",
"      @@##$$$$%%%%%%@@@@@@@@@@@@@@@@%%@@        ",
"      @@##$$$$&&%%%%%%@@$$**@@**$$$$@@          ",
"      @@##$$$$&&%%%%%%@@$$**@@**$$$$@@          ",
"        @@@@@@@@@@@@@@@@@@@@@@@@@@@@@@          ",
"        @@@@@@@@@@@@@@@@@@@@@@@@@@@@@@          ",
"                                      +         ",
"                                     ++         ",
"                                  ++ ++         ",
"                                  ++ ++         ",
"                                  ++            ",
"                                   +            ",
"                                                ",
"                                                ",
"                   ++                           ",
"                  ++ +                          ",
"                   +++                          ",
"                   ++                           "};
