/* XPM */
static char * fox_l1_xpm[] = {
"48 48 11 1",
" 	c #2DA206",
".	c #88CC00",
"+	c #0E8F57",
"@	c #69BA00",
"#	c #2F2F2E",
"$	c #9D5021",
"%	c #D67941",
"&	c #FFFFFF",
"*	c #B8B8B8",
"=	c #4F4F4E",
"-	c #3B3B39",
" ..+           @++    @@@  +..+++ ..@  .      ..",
" @@@         @@                   @@   +        ",
" @@@         @@                   @@   +        ",
"      .  .                           ++   @++   ",
".  +++             ..                     +     ",
".  +++             ..                     +     ",
"+                     @@+           @++         ",
" @@   .     .++      @++      .   @@+        @  ",
" @@   .     .++ #### @++      .   @@+        @  ",
"      ...   @++ #### +        @   ++         +@@",
"      ######+   ##$$##   ..   @               @@",
"      ######+   ##$$##   ..   @               @@",
"      ##%%$$##  ##&&$$##      +      @@@        ",
" @@@  ##%%$$## .##&&$$##               @        ",
" @@@  @ ##########&&$$##               @####    ",
" @@     ##########&&$$##    ..          ####    ",
"        ##%%%%%%%%$$$$## ++@      ######**##  ..",
"        ##%%%%%%%%$$$$## ++@      ######**##  ..",
"      ##$$$$$$##%%$$$$##   +@@  ##%%&&&&**##    ",
" ++   ##$$$$$$##%%$$$$##@   ++. ##%%&&&&**##    ",
" ++ ######%%%%%%%%$$$$$$##  ++##%%%%$$**##      ",
"    ######%%%%%%%%$$$$$$##  ++##%%%%$$**##   @  ",
"    ##&&&&&&&&&&&&&&****##  ##%%%%%%$$##     +@@",
"    ##&&&&&&&&&&&&&&****##  ##%%%%%%$$##     +@@",
"      ####&&&&&&****##########%%%%$$$$##      ++",
".@@   ####&&&&&&****##########%%%%$$$$##        ",
".@@       ##########$$$$$$$$$$##$$$$##@         ",
"+@@   +   ##########$$$$$$$$$$##$$$$##+@        ",
"      +@@@##&&&&%%%%%%%%$$$$$$$$####         @  ",
"      +@@@##&&&&%%%%%%%%$$$$$$$$####         @  ",
"       ++ ####****$$%%%%%%$$$$$$##++         @@@",
"          ####****$$%%%%%%$$$$$$##         +++@@",
"          ##$$######%%########$$##         +++@@",
"   @      ##$$######%%########$$##              ",
"+  @      ##==##  ##==####--##--##  .           ",
"+  @      ##==##  ##==####--##--##  .           ",
".         ####+@  ####    ##  ####..       @@@  ",
"          ####    ####  +@##  ####..          ++",
"                        +@@       ..          ++",
" @@@     .               ++@      ++ @@.   ++ ..",
" ..+            @@+   ..   +@@         @        ",
" ..+            @@+   ..   +@@         @        ",
"       ++@     @++    ..                   @@@  ",
"         +@@             ..             ++ ++.  ",
"         +@@             ..             ++ ++.  ",
"      .              +  .@@                     ",
".      +++         @@   @   @@+   ++@..         ",
".      +++         @@   @   @@+   ++@..         "};
