/* XPM */
static char * fox_r5b_xpm[] = {
"48 48 10 1",
" 	c #6E924D",
".	c #4D733E",
"+	c #2F2F2E",
"@	c #87B055",
"#	c #9D5021",
"$	c #FFFFFF",
"%	c #D67941",
"&	c #B8B8B8",
"*	c #3B3B39",
"=	c #4F4F4E",
"                                                ",
"                                                ",
"                                 .              ",
"                                .  .            ",
"                                                ",
"                                 .              ",
"                                                ",
"                                                ",
"                            ++++                ",
"                          @ ++++                ",
"                         @++##++    ++++++      ",
"                         @++##++    ++++++      ",
"         @              ++##$$++@ ++##%%++      ",
"         @@             ++##$$++@ ++##%%++      ",
"    ++++ @@             ++##$$++++++++++        ",
"    ++++ @@ @           ++##$$++++++++++        ",
"    ++&&++++++          ++####%%%%%%%%++        ",
"    ++&&++++++          ++####%%%%%%%%++        ",
"    ++&&$$$$%%++        ++####%%++######++      ",
"    ++&&$$$$%%++        ++####%%++######++      ",
"      ++&&##%%%%++    ++######%%%%%%%%++++++    ",
"      ++&&##%%%%++    ++######%%%%%%%%++++++    ",
"@       ++##%%%%%%++  ++&&&&$$$$$$$$$$$$$$++    ",
"@@      ++##%%%%%%++  ++&&&&$$$$$$$$$$$$$$++    ",
" @@     ++####%%%%++++++++++&&&&$$$$$$++++     @",
"@@      ++####%%%%++++++++++&&&&$$$$$$++++     @",
"@         ++####++##########++++++++++          ",
"          ++####++##########++++++++++          ",
"            ++++########%%%%%%%%$$$$++          ",
"            ++++########%%%%%%%%$$$$++          ",
"              ++######%%%%%%##&&&&++++          ",
"              ++######%%%%%%##&&&&++++          ",
"              ++##++++++++%%++++++##++          ",
"              ++##++++++++%%++++++##++          ",
"              ++**++**++++==++  ++==++          ",
"              ++**++**++++==++  ++==++          ",
"              ++++  ++    ++++    ++++@         ",
"              ++++  ++    ++++    ++++@         ",
"                                  @@ @@         ",
"                                  @@ @@         ",
"                                  @@            ",
"                                   @            ",
"                                                ",
"                                                ",
"                   @@                           ",
"                  @@ @                          ",
"                   @@@                          ",
"                   @@                           "};
