/* XPM */
static char * grass_xpm[] = {
"48 48 4 1",
" 	c #2DA206",
".	c #88CC00",
"+	c #0E8F57",
"@	c #69BA00",
" ..+           @++    @@@  +..+++ ..@  .      ..",
" @@@         @@                   @@   +        ",
" @@@         @@                   @@   +        ",
"      .  .                           ++   @++   ",
".  +++             ..                     +     ",
".  +++             ..                     +     ",
"+                     @@+           @++         ",
" @@   .     .++      @++      .   @@+        @  ",
" @@   .     .++      @++      .   @@+        @  ",
"      ...   @++   .  +        @   ++         +@@",
"          @@+            ..   @               @@",
"          @@+            ..   @               @@",
"          @@+        @        +      @@@        ",
" @@@  @        .   @@+                 @        ",
" @@@  @        .   @@+                 @        ",
" @@                @@       ..            .     ",
"             @@          ++@      ..          ..",
"             @@          ++@      ..          ..",
"             ++      .     +@@    ..            ",
" ++    ++ ..       @@+  @   ++.                 ",
" ++    ++ ..       @@+  @   ++.                 ",
"      +@@ ..      @++   @   ++@        .     @  ",
"      @                 .              @     +@@",
"      @                 .              @     +@@",
"               .                 .++          ++",
".@@            @++    ..@        +   @@         ",
".@@            @++    ..@        +   @@         ",
"+@@   +         @@+                  ++@        ",
"      +@@@        +           .   ..         @  ",
"      +@@@        +           .   ..         @  ",
"       ++                        @++         @@@",
"                   ..@   @@    @@+         +++@@",
"                   ..@   @@    @@+         +++@@",
"   @        @                  @@+              ",
"+  @      +++@@    @@          @@   .           ",
"+  @      +++@@    @@          @@   .           ",
".            ++@   @@             ..       @@@  ",
"                        +@@       ..          ++",
"                        +@@       ..          ++",
" @@@     .               ++@      ++ @@.   ++ ..",
" ..+            @@+   ..   +@@         @        ",
" ..+            @@+   ..   +@@         @        ",
"       ++@     @++    ..                   @@@  ",
"         +@@             ..             ++ ++.  ",
"         +@@             ..             ++ ++.  ",
"      .              +  .@@                     ",
".      +++         @@   @   @@+   ++@..         ",
".      +++         @@   @   @@+   ++@..         "};
