/* XPM */
static char * grass2_xpm[] = {
"48 48 4 1",
" 	c #6E924D",
".	c #4D733E",
"+	c #87B055",
"@	c #FFFFFF",
"                                                ",
"                                                ",
"                                 .              ",
"                                .  .            ",
"                                                ",
"                                 .              ",
"                                                ",
"                                                ",
"                                                ",
"                          +                     ",
"                         +++                    ",
"                         ++++                   ",
"         +               ++++   +               ",
"         ++               ++   ++               ",
"         ++                +  +++               ",
"         ++ +                ++                 ",
"         ++ ++                                  ",
"         +  ++               ..                 ",
"            ++                                  ",
"                                                ",
"                                                ",
"                                                ",
"+                                               ",
"++                                              ",
" ++                                            +",
"++                                             +",
"+                                               ",
"                                                ",
"                                                ",
"                                                ",
"                                                ",
"                                                ",
"               .                                ",
"              .  .                              ",
"                                                ",
"               .                                ",
"                                      +         ",
"                                     ++         ",
"                                  ++ ++         ",
"                                  ++ ++         ",
"                                  ++            ",
"                                   +            ",
"                                                ",
"                                                ",
"                   ++                           ",
"                  ++ +                          ",
"                   +++                          ",
"                   ++                           "};
