/* XPM */
static char * cute chicken idle_1_xpm[] = {
"48 48 9 1",
" 	c #6BB250",
".	c #EAEAEA",
"+	c #171717",
"@	c #B4202A",
"#	c #F5F3E2",
"$	c #FFD541",
"%	c #A9A68D",
"&	c #D6D3BC",
"*	c #AE8C12",
"                                                ",
"                                                ",
"                                                ",
"                                                ",
"                                                ",
"                                                ",
"                                                ",
"                                                ",
"                                                ",
"                             ..                 ",
"                            .++.                ",
"                           .+@@+.               ",
"                           .+@+.                ",
"                          .+###+.               ",
"                         .+#####+.              ",
"                        .+#######+.             ",
"                       .+#########+.            ",
"                       .+####++###+.            ",
"                 ....  .+####++###+.            ",
"                .++++. .+########$$+.           ",
"               .+%%%%+..+########$$$+.          ",
"              .+%%%%%%+++########@@+.           ",
"             .+##################@+.            ",
"             .+###################+.            ",
"             .+#######&&&&&#######+.            ",
"             .+##&&&&&&&&&&&######+.            ",
"             .+%&&&&&&&&&&&&#####%+.            ",
"              .+&&&&&&&&&&&&####%+.             ",
"              .+&&&&&&&&&&&%###%+.              ",
"               .+&&&&&&&&&%###%+.               ",
"                .++%%%%%%%###%+.                ",
"                 ..+%#######%+.                 ",
"                   .+%%%%%%%+.                  ",
"                   .+++++++++.                  ",
"                  .+$+.....+*+.                 ",
"                  .+$$+.  .+**+.                ",
"                   .++.    .++.                 ",
"                    ..      ..                  ",
"                                                ",
"                                                ",
"                                                ",
"                                                ",
"                                                ",
"                                                ",
"                                                ",
"                                                ",
"                                                ",
"                                                "};
