/* XPM */
static char * exit_closed2_xpm[] = {
"48 48 3 1",
" 	c #6BB250",
".	c #4E2801",
"+	c #3E2D1D",
"                                                ",
"                                                ",
"                                                ",
"                                                ",
"                                                ",
"                                                ",
"                                                ",
"                                                ",
"                                                ",
"                                                ",
"                                                ",
"                    .......                     ",
"                 ++.........                    ",
"                 ++.........                    ",
"                .........++....                 ",
"                .........++....                 ",
"              .....+...++........               ",
"            ..........+++.........++            ",
"            ..........+++.........++            ",
"           ...........++++++++.......           ",
"         ........+++...................         ",
"         ........+++...................         ",
"        .+++++...........................       ",
"        ...+++++..................+++....       ",
"        ...+++++..................+++....       ",
"         .......++++++++++++++++++++...         ",
"         .......++++++++++++++++++++...         ",
"  .     .   ..................+++...     +      ",
"                ...........+........        +   ",
"                ...........+........        +   ",
"        +                   ..   +              ",
"           +       .  +    +                .   ",
"           +       .  +    +                .   ",
"     .          +                      ++       ",
"         ++           +           ++         .. ",
"         ++           +           ++         .. ",
"                                                ",
"              ..    ..      ++              .   ",
"              ..    ..      ++              .   ",
"        .                            ..         ",
"        .                            ..         ",
"                    ..   ..                     ",
"                 ..                             ",
"                 ..                             ",
"                                                ",
"                                                ",
"                                                ",
"                            ..                  "};
