/* XPM */
static char * exit_game_over_xpm[] = {
"48 48 44 1",
" 	c #6BB250",
".	c #560101",
"+	c #DD006C",
"@	c #647F17",
"#	c #4E2801",
"$	c #2F2F2E",
"%	c #3D2C23",
"&	c #000000",
"*	c #9D5021",
"=	c #242423",
"-	c #D67941",
";	c #232322",
">	c #FFFFFF",
",	c #252524",
"'	c #6DB353",
")	c #061003",
"!	c #4E2802",
"~	c #6CB250",
"{	c #6CB150",
"]	c #2A2A29",
"^	c #B8B8B8",
"/	c #5A2F08",
"(	c #2B2B2A",
"_	c #64350F",
":	c #6AB150",
"<	c #222222",
"[	c #592F08",
"}	c #6DB04F",
"|	c #6BB150",
"1	c #7A3D17",
"2	c #834218",
"3	c #6AB14F",
"4	c #7F4623",
"5	c #522A02",
"6	c #592F16",
"7	c #9A552C",
"8	c #090200",
"9	c #522A03",
"0	c #522B13",
"a	c #1A0A03",
"b	c #4E2A02",
"c	c #7D3E18",
"d	c #65361A",
"e	c #47240F",
"                                       ...      ",
"                                      ...+.     ",
"                                     ...+...    ",
"                                    .+.+.+...   ",
"                                   .......+..   ",
"                                  .....+....    ",
"                                 ....+..+..     ",
"                       @@@@     .+..+++...      ",
"                    @@@##@@@@@ .+....+...       ",
"                    @@@##@@@@@ ..++.....        ",
"            @@@@#######@@##@@@ ...+.+....       ",
"            ################## ....+.. ...      ",
"            ################## ......   ...     ",
"            ###############$$%      @    ...    ",
"         @@@@###&&&&&&&&&&&$$$####@@@     ...   ",
"         @@@###&&&&&$$$$&&&$$*$=&&###      ...  ",
"         @@@###&&&&&$--*$;&$$>**$&###       ... ",
"        #####&&&&&&&$--*$,&$$>**$&##### @@@  .  ",
"        #####&&&&&&&&$$$$$$$$>**$&&&###@        ",
"        #####&&&&&&&&$$------***$&&&###@        ",
"        #####&&&&&&&&$$------***$&&&###@        ",
"        @####&&&&&&&$*****$--***$&&&###@  '     ",
"        @####&&&&&$$$$$------****$$)&#!# ~{     ",
"        @####&&&&&$$$$$------****$]&&#!#  {{    ",
"        @####&&&&&$$>>>>>>>>>>^^^$$&&#/# ~ {    ",
"      @@@@@@@##&&&&&$$$>>>>^^^$$$$$(&#_  { {:   ",
"      @@@@@@@##&&&&&$=$>>>>^^^$$$$<&&#[  }  |   ",
"         @@@###&&&&&&&&$$$$$$$**112####    3    ",
"         @@@###&&&&&&&&$>>>-----4*5####         ",
"            ###&&&&&&&&$>>>----6789####         ",
"            ###&&&&&&&&($$^^^*06a&#####         ",
"            ######b&&&&=cc====de&&###@@         ",
"            @@@######################           ",
"            @@@######################           ",
"            @######@##############@@            ",
"            @######@##############@@            ",
"             @@@@@@@@@@####@@@@@                ",
"             @@@@@@@@@@####@@@@@                ",
"                           @@#                  ",
"                                                ",
"                                                ",
"                                                ",
"                                                ",
"                                                ",
"                                                ",
"                                                ",
"                                                ",
"                                                "};
