/* XPM */
static char * exit_closed_xpm[] = {
"48 48 4 1",
" 	c #6BB250",
".	c #647F17",
"+	c #4E2801",
"@	c #3E2D1D",
"                                                ",
"                                                ",
"                                                ",
"                                                ",
"                                                ",
"                                                ",
"                                                ",
"                                                ",
"                                                ",
"                       ...                      ",
"                    .........                   ",
"                    .........                   ",
"             ................                   ",
"             .........+........   .             ",
"             .........+........   .             ",
"           ...........@@@..........             ",
"           ........@++++++@@.......             ",
"           ........@++++++@@.......             ",
"        .........@@@+++++++++@@...... ..        ",
"          ......@@@++++++++++++@+++...          ",
"          ......@@@++++++++++++@+++...          ",
"          ....+++++++++@@+++@@@+@@+...          ",
"          ......++++++@@@++++@@+@@+.....        ",
"          ......++++++@@@++++@@+@@+.....        ",
"          ......@@@@+++++++++@@@@@....          ",
"        ........@@@@@@++++++@@@+@@....          ",
"        ........@@@@@@++++++@@@+@@....          ",
"           ......@@@@@@+++++@++@@@@...          ",
"             ....@@@@@@@@@@@@@@@@@.++.          ",
"             ....@@@@@@@@@@@@@@@@@.++.          ",
"           ........@@@@@@@@@@@@.......          ",
"           ...........+@@@@@.......             ",
"           ...........+@@@@@.......             ",
"             ......................             ",
"              .................                 ",
"              .................                 ",
"                   ..........  .                ",
"                   ...                          ",
"                   ...                          ",
"                   .                            ",
"                                                ",
"                                                ",
"                                                ",
"                                                ",
"                                                ",
"                                                ",
"                                                ",
"                                                "};
