/* XPM */
static char * wall3_xpm[] = {
"48 48 6 1",
" 	c #6BB250",
".	c #23213D",
"+	c #1F9983",
"@	c #94E092",
"#	c #C56876",
"$	c #EB9F7F",
"                                                ",
"                                                ",
"                                                ",
"                                                ",
"                                                ",
"                                                ",
"                                                ",
"                                                ",
"                                                ",
"                                                ",
"                 ..............                 ",
"                 ..............                 ",
"               ..++++++++@@++@@..               ",
"               ..++++++++@@++@@..               ",
"             ..++++++++@@@@@@@@++..             ",
"             ..++++++++@@@@@@@@++..             ",
"             ..++++++++@@@@@@@@++..             ",
"             ..++++++++@@@@@@@@++..             ",
"           ..++++++@@@@@@@@@@@@@@@@..           ",
"           ..++++++@@@@@@@@@@@@@@@@..           ",
"           ..++##++++++++@@@@##@@@@..           ",
"           ..++##++++++++@@@@##@@@@..           ",
"           ..++++++++++@@@@@@++@@++..           ",
"           ..++++++++++@@@@@@++@@++..           ",
"           ..++++++++++@@@@@@@@@@@@..           ",
"           ..++++++++++@@@@@@@@@@@@..           ",
"           ..++++++++++@@@@@@@@@@@@..           ",
"           ..++++++++++@@@@@@@@@@@@..           ",
"           ..++++++++++++##@@@@@@++..           ",
"           ..++++++++++++##@@@@@@++..           ",
"             ..++++++++@@++@@@@@@..             ",
"             ..++++++++@@++@@@@@@..             ",
"               ..++++++++@@@@@@..               ",
"               ..++++++++@@@@@@..               ",
"               ..++++++++@@@@@@..               ",
"               ..++++++++@@@@@@..               ",
"                 ..##########..                 ",
"                 ..##########..                 ",
"                 ..########$$$$..               ",
"                 ..########$$$$..               ",
"               ..######$$$$##$$..               ",
"               ..######$$$$##$$..               ",
"             ..####$$$$$$##$$$$##..             ",
"             ..####$$$$$$##$$$$##..             ",
"                                                ",
"                                                ",
"                                                ",
"                                                "};
